<svg xmlns="http://www.w3.org/2000/svg" width="1280" height="760" viewBox="0 0 1280 760" role="img" aria-labelledby="title desc">
  <title id="title">Gasp Search app overview</title>
  <desc id="desc">Composite screenshot-style overview of dashboard, search, leads and pipeline screens.</desc>
  <rect width="1280" height="760" fill="#151515"/>
  <rect x="28" y="28" width="1224" height="704" rx="16" fill="#202020" stroke="#3a3a3a"/>
  <rect x="28" y="28" width="210" height="704" rx="16" fill="#242424"/>
  <text x="58" y="72" fill="#6ee7b7" font-family="Inter, Arial, sans-serif" font-size="14" font-weight="700">GaspLab</text>
  <text x="58" y="98" fill="#f5f5f5" font-family="Inter, Arial, sans-serif" font-size="24" font-weight="700">Gasp Search</text>
  <g fill="#d4d4d4" font-family="Inter, Arial, sans-serif" font-size="16">
    <text x="58" y="155">Dashboard</text>
    <text x="58" y="205">Buscar</text>
    <text x="58" y="255">Leads</text>
    <text x="58" y="305">Pipeline</text>
    <text x="58" y="355">Configurações</text>
  </g>
  <rect x="268" y="58" width="944" height="54" rx="8" fill="#191919" stroke="#3a3a3a"/>
  <text x="292" y="92" fill="#f5f5f5" font-family="Inter, Arial, sans-serif" font-size="20" font-weight="700">Dashboard</text>
  <circle cx="1142" cy="85" r="14" fill="#2f2f2f" stroke="#525252"/>
  <circle cx="1184" cy="85" r="18" fill="#10b981"/>
  <g transform="translate(268 140)">
    <rect width="210" height="112" rx="8" fill="#262626" stroke="#404040"/>
    <rect x="244" width="210" height="112" rx="8" fill="#262626" stroke="#404040"/>
    <rect x="488" width="210" height="112" rx="8" fill="#262626" stroke="#404040"/>
    <rect x="732" width="210" height="112" rx="8" fill="#262626" stroke="#404040"/>
    <text x="20" y="34" fill="#a3a3a3" font-family="Inter, Arial, sans-serif" font-size="14">Total de leads</text>
    <text x="20" y="78" fill="#f5f5f5" font-family="Inter, Arial, sans-serif" font-size="36" font-weight="700">128</text>
    <text x="264" y="34" fill="#a3a3a3" font-family="Inter, Arial, sans-serif" font-size="14">Novos 7 dias</text>
    <text x="264" y="78" fill="#f5f5f5" font-family="Inter, Arial, sans-serif" font-size="36" font-weight="700">19</text>
    <text x="508" y="34" fill="#a3a3a3" font-family="Inter, Arial, sans-serif" font-size="14">Pipeline ativo</text>
    <text x="508" y="78" fill="#f5f5f5" font-family="Inter, Arial, sans-serif" font-size="36" font-weight="700">55</text>
    <text x="752" y="34" fill="#a3a3a3" font-family="Inter, Arial, sans-serif" font-size="14">Últimas buscas</text>
    <text x="752" y="78" fill="#f5f5f5" font-family="Inter, Arial, sans-serif" font-size="36" font-weight="700">5</text>
  </g>
  <g transform="translate(268 284)">
    <rect width="455" height="168" rx="8" fill="#262626" stroke="#404040"/>
    <text x="20" y="34" fill="#f5f5f5" font-family="Inter, Arial, sans-serif" font-size="18" font-weight="700">Buscar</text>
    <rect x="20" y="58" width="260" height="34" rx="6" fill="#171717" stroke="#525252"/>
    <rect x="292" y="58" width="120" height="34" rx="6" fill="#10b981"/>
    <rect x="20" y="108" width="126" height="30" rx="15" fill="#064e3b"/>
    <rect x="160" y="108" width="110" height="30" rx="15" fill="#064e3b"/>
    <text x="40" y="130" fill="#d1fae5" font-family="Inter, Arial, sans-serif" font-size="13">barbearia</text>
    <text x="180" y="130" fill="#d1fae5" font-family="Inter, Arial, sans-serif" font-size="13">clínica</text>
    <rect x="487" width="455" height="168" rx="8" fill="#262626" stroke="#404040"/>
    <text x="507" y="34" fill="#f5f5f5" font-family="Inter, Arial, sans-serif" font-size="18" font-weight="700">Leads</text>
    <g fill="#171717" stroke="#525252">
      <rect x="507" y="58" width="405" height="28" rx="4"/>
      <rect x="507" y="96" width="405" height="28" rx="4"/>
      <rect x="507" y="134" width="405" height="28" rx="4"/>
    </g>
  </g>
  <g transform="translate(268 484)">
    <rect width="942" height="204" rx="8" fill="#262626" stroke="#404040"/>
    <text x="20" y="34" fill="#f5f5f5" font-family="Inter, Arial, sans-serif" font-size="18" font-weight="700">Pipeline</text>
    <g transform="translate(20 58)">
      <rect width="140" height="118" rx="8" fill="#171717" stroke="#38bdf8"/>
      <rect x="160" width="140" height="118" rx="8" fill="#171717" stroke="#f59e0b"/>
      <rect x="320" width="140" height="118" rx="8" fill="#171717" stroke="#8b5cf6"/>
      <rect x="480" width="140" height="118" rx="8" fill="#171717" stroke="#10b981"/>
      <rect x="640" width="140" height="118" rx="8" fill="#171717" stroke="#059669"/>
      <rect x="800" width="102" height="118" rx="8" fill="#171717" stroke="#f43f5e"/>
    </g>
  </g>
</svg>
